<svg width="400" height="400" viewBox="0 0 400 400" fill="none" xmlns="http://www.w3.org/2000/svg">
<g clip-path="url(#clip0_1_2)">
<path d="M48.497 69.135C50.981 66.013 53.613 63.009 56.245 60.005C56.363 59.856 56.63 59.826 56.748 59.677C56.985 59.38 57.37 59.201 57.606 58.903L57.843 58.606C59.678 56.91 61.63 55.064 63.881 53.456C71.845 47.41 80.11 42.817 88.825 39.795C116.778 29.981 147.894 36.029 172.295 59.065C206.366 91.002 203.315 142.451 176.117 176.647C141.748 227.625 82.684 298.748 164.463 362.46C179.167 373.916 190.075 383.361 236.392 396.746C206.1 402.326 178.012 400.59 146.748 392.605C124.634 380.123 89.866 353.397 78.037 317.3C60.159 262.562 109.513 180.732 133.365 149.216C166.113 105.599 113.124 58.382 74.112 111.095C53.72 138.566 18.044 216.303 30.442 273.965C37.691 306.664 47.353 330.499 85.663 363.241C78.559 359.049 71.66 354.294 64.968 348.974C-24.043 266.06 -13.716 137.859 48.497 69.135V69.135Z" fill="url(#paint0_linear_1_2)"/>
<path d="M351.503 330.865C349.019 333.987 346.387 336.991 343.755 339.995C343.637 340.144 343.37 340.174 343.252 340.323C343.015 340.62 342.63 340.799 342.394 341.097L342.157 341.394C340.322 343.09 338.37 344.936 336.119 346.544C328.155 352.59 319.89 357.183 311.175 360.205C283.222 370.019 252.106 363.971 227.705 340.935C193.634 308.998 196.685 257.549 223.883 223.353C258.252 172.375 317.316 101.252 235.537 37.54C220.833 26.084 209.925 16.639 163.608 3.25402C193.9 -2.32598 221.988 -0.590978 253.251 7.39502C275.366 19.877 310.134 46.603 321.963 82.7C339.841 137.438 290.487 219.268 266.635 250.784C233.887 294.401 286.876 341.618 325.888 288.905C346.28 261.434 381.956 183.697 369.558 126.035C362.309 93.336 352.647 69.501 314.337 36.759C321.441 40.951 328.34 45.706 335.032 51.026C424.043 133.94 413.716 262.141 351.503 330.865Z" fill="url(#paint1_linear_1_2)"/>
</g>
<defs>
<linearGradient id="paint0_linear_1_2" x1="-2.26071e-06" y1="200" x2="400" y2="200" gradientUnits="userSpaceOnUse">
<stop stop-color="#0482C9"/>
<stop offset="1"/>
</linearGradient>
<linearGradient id="paint1_linear_1_2" x1="2.77859e-06" y1="200" x2="606.5" y2="194.5" gradientUnits="userSpaceOnUse">
<stop stop-color="#A9A7FF"/>
<stop offset="1"/>
</linearGradient>
<clipPath id="clip0_1_2">
<rect width="400" height="400" fill="white"/>
</clipPath>
</defs>
</svg>
